<mxfile host="app.diagrams.net" modified="2024-02-25T04:04:19.064Z" agent="Mozilla/5.0 (Windows NT 10.0; Win64; x64) AppleWebKit/537.36 (KHTML, like Gecko) Chrome/121.0.0.0 Safari/537.36" etag="TzGthkvX-zBT1u8mKNQN" version="23.1.6" type="device">
  <diagram name="Page-1" id="Qug9uoKuvxaWJMSSJhEC">
    <mxGraphModel dx="1900" dy="565" grid="1" gridSize="10" guides="1" tooltips="1" connect="1" arrows="1" fold="1" page="1" pageScale="1" pageWidth="850" pageHeight="1100" math="0" shadow="0">
      <root>
        <mxCell id="0" />
        <mxCell id="1" parent="0" />
        <mxCell id="ro8EDTR5ztBZMEgjOztu-14" value="AWS Cloud" style="points=[[0,0],[0.25,0],[0.5,0],[0.75,0],[1,0],[1,0.25],[1,0.5],[1,0.75],[1,1],[0.75,1],[0.5,1],[0.25,1],[0,1],[0,0.75],[0,0.5],[0,0.25]];outlineConnect=0;gradientColor=none;html=1;whiteSpace=wrap;fontSize=12;fontStyle=0;container=1;pointerEvents=0;collapsible=0;recursiveResize=0;shape=mxgraph.aws4.group;grIcon=mxgraph.aws4.group_aws_cloud_alt;strokeColor=#232F3E;fillColor=none;verticalAlign=top;align=left;spacingLeft=30;fontColor=#232F3E;dashed=0;" vertex="1" parent="1">
          <mxGeometry x="40" y="40" width="880" height="770" as="geometry" />
        </mxCell>
        <mxCell id="ro8EDTR5ztBZMEgjOztu-15" value="Region" style="points=[[0,0],[0.25,0],[0.5,0],[0.75,0],[1,0],[1,0.25],[1,0.5],[1,0.75],[1,1],[0.75,1],[0.5,1],[0.25,1],[0,1],[0,0.75],[0,0.5],[0,0.25]];outlineConnect=0;gradientColor=none;html=1;whiteSpace=wrap;fontSize=12;fontStyle=0;container=1;pointerEvents=0;collapsible=0;recursiveResize=0;shape=mxgraph.aws4.group;grIcon=mxgraph.aws4.group_region;strokeColor=#00A4A6;fillColor=none;verticalAlign=top;align=left;spacingLeft=30;fontColor=#147EBA;dashed=1;" vertex="1" parent="ro8EDTR5ztBZMEgjOztu-14">
          <mxGeometry x="30" y="30" width="840" height="730" as="geometry" />
        </mxCell>
        <mxCell id="ro8EDTR5ztBZMEgjOztu-16" value="VPC" style="points=[[0,0],[0.25,0],[0.5,0],[0.75,0],[1,0],[1,0.25],[1,0.5],[1,0.75],[1,1],[0.75,1],[0.5,1],[0.25,1],[0,1],[0,0.75],[0,0.5],[0,0.25]];outlineConnect=0;gradientColor=none;html=1;whiteSpace=wrap;fontSize=12;fontStyle=0;container=1;pointerEvents=0;collapsible=0;recursiveResize=0;shape=mxgraph.aws4.group;grIcon=mxgraph.aws4.group_vpc2;strokeColor=#8C4FFF;fillColor=none;verticalAlign=top;align=left;spacingLeft=30;fontColor=#AAB7B8;dashed=0;" vertex="1" parent="ro8EDTR5ztBZMEgjOztu-15">
          <mxGeometry x="127" y="100" width="693" height="520" as="geometry" />
        </mxCell>
        <mxCell id="ro8EDTR5ztBZMEgjOztu-18" value="AZ2" style="fillColor=none;strokeColor=#147EBA;dashed=1;verticalAlign=top;fontStyle=0;fontColor=#147EBA;whiteSpace=wrap;html=1;" vertex="1" parent="ro8EDTR5ztBZMEgjOztu-16">
          <mxGeometry x="223" y="280" width="440" height="180" as="geometry" />
        </mxCell>
        <mxCell id="ro8EDTR5ztBZMEgjOztu-20" value="AZ1" style="fillColor=none;strokeColor=#147EBA;dashed=1;verticalAlign=top;fontStyle=0;fontColor=#147EBA;whiteSpace=wrap;html=1;" vertex="1" parent="ro8EDTR5ztBZMEgjOztu-16">
          <mxGeometry x="223" y="90" width="440" height="180" as="geometry" />
        </mxCell>
        <mxCell id="ro8EDTR5ztBZMEgjOztu-21" value="Private subnet" style="points=[[0,0],[0.25,0],[0.5,0],[0.75,0],[1,0],[1,0.25],[1,0.5],[1,0.75],[1,1],[0.75,1],[0.5,1],[0.25,1],[0,1],[0,0.75],[0,0.5],[0,0.25]];outlineConnect=0;gradientColor=none;html=1;whiteSpace=wrap;fontSize=12;fontStyle=0;container=1;pointerEvents=0;collapsible=0;recursiveResize=0;shape=mxgraph.aws4.group;grIcon=mxgraph.aws4.group_security_group;grStroke=0;strokeColor=#00A4A6;fillColor=#E6F6F7;verticalAlign=top;align=left;spacingLeft=30;fontColor=#147EBA;dashed=0;" vertex="1" parent="ro8EDTR5ztBZMEgjOztu-16">
          <mxGeometry x="493" y="100" width="160" height="160" as="geometry" />
        </mxCell>
        <mxCell id="ro8EDTR5ztBZMEgjOztu-22" value="Private subnet" style="points=[[0,0],[0.25,0],[0.5,0],[0.75,0],[1,0],[1,0.25],[1,0.5],[1,0.75],[1,1],[0.75,1],[0.5,1],[0.25,1],[0,1],[0,0.75],[0,0.5],[0,0.25]];outlineConnect=0;gradientColor=none;html=1;whiteSpace=wrap;fontSize=12;fontStyle=0;container=1;pointerEvents=0;collapsible=0;recursiveResize=0;shape=mxgraph.aws4.group;grIcon=mxgraph.aws4.group_security_group;grStroke=0;strokeColor=#00A4A6;fillColor=#E6F6F7;verticalAlign=top;align=left;spacingLeft=30;fontColor=#147EBA;dashed=0;" vertex="1" parent="ro8EDTR5ztBZMEgjOztu-16">
          <mxGeometry x="493" y="290" width="160" height="160" as="geometry" />
        </mxCell>
        <mxCell id="ro8EDTR5ztBZMEgjOztu-23" value="Auto Scaling group" style="points=[[0,0],[0.25,0],[0.5,0],[0.75,0],[1,0],[1,0.25],[1,0.5],[1,0.75],[1,1],[0.75,1],[0.5,1],[0.25,1],[0,1],[0,0.75],[0,0.5],[0,0.25]];outlineConnect=0;gradientColor=none;html=1;whiteSpace=wrap;fontSize=12;fontStyle=0;container=1;pointerEvents=0;collapsible=0;recursiveResize=0;shape=mxgraph.aws4.groupCenter;grIcon=mxgraph.aws4.group_auto_scaling_group;grStroke=1;strokeColor=#D86613;fillColor=none;verticalAlign=top;align=center;fontColor=#D86613;dashed=1;spacingTop=25;" vertex="1" parent="ro8EDTR5ztBZMEgjOztu-16">
          <mxGeometry x="452" y="20" width="230" height="480" as="geometry" />
        </mxCell>
        <mxCell id="ro8EDTR5ztBZMEgjOztu-27" value="EC2" style="sketch=0;points=[[0,0,0],[0.25,0,0],[0.5,0,0],[0.75,0,0],[1,0,0],[0,1,0],[0.25,1,0],[0.5,1,0],[0.75,1,0],[1,1,0],[0,0.25,0],[0,0.5,0],[0,0.75,0],[1,0.25,0],[1,0.5,0],[1,0.75,0]];outlineConnect=0;fontColor=#232F3E;fillColor=#ED7100;strokeColor=#ffffff;dashed=0;verticalLabelPosition=bottom;verticalAlign=top;align=center;html=1;fontSize=12;fontStyle=0;aspect=fixed;shape=mxgraph.aws4.resourceIcon;resIcon=mxgraph.aws4.ec2;" vertex="1" parent="ro8EDTR5ztBZMEgjOztu-23">
          <mxGeometry x="81" y="301" width="78" height="78" as="geometry" />
        </mxCell>
        <mxCell id="ro8EDTR5ztBZMEgjOztu-31" value="Security group" style="fillColor=none;strokeColor=#DD3522;verticalAlign=top;fontStyle=0;fontColor=#DD3522;whiteSpace=wrap;html=1;" vertex="1" parent="ro8EDTR5ztBZMEgjOztu-23">
          <mxGeometry x="56" y="110" width="130" height="300" as="geometry" />
        </mxCell>
        <mxCell id="ro8EDTR5ztBZMEgjOztu-24" value="Public subnet" style="points=[[0,0],[0.25,0],[0.5,0],[0.75,0],[1,0],[1,0.25],[1,0.5],[1,0.75],[1,1],[0.75,1],[0.5,1],[0.25,1],[0,1],[0,0.75],[0,0.5],[0,0.25]];outlineConnect=0;gradientColor=none;html=1;whiteSpace=wrap;fontSize=12;fontStyle=0;container=1;pointerEvents=0;collapsible=0;recursiveResize=0;shape=mxgraph.aws4.group;grIcon=mxgraph.aws4.group_security_group;grStroke=0;strokeColor=#7AA116;fillColor=#F2F6E8;verticalAlign=top;align=left;spacingLeft=30;fontColor=#248814;dashed=0;" vertex="1" parent="ro8EDTR5ztBZMEgjOztu-16">
          <mxGeometry x="253" y="100" width="160" height="160" as="geometry" />
        </mxCell>
        <mxCell id="ro8EDTR5ztBZMEgjOztu-28" value="" style="sketch=0;outlineConnect=0;fontColor=#232F3E;gradientColor=none;fillColor=#8C4FFF;strokeColor=none;dashed=0;verticalLabelPosition=bottom;verticalAlign=top;align=center;html=1;fontSize=12;fontStyle=0;aspect=fixed;pointerEvents=1;shape=mxgraph.aws4.nat_gateway;" vertex="1" parent="ro8EDTR5ztBZMEgjOztu-24">
          <mxGeometry x="36" y="41" width="78" height="78" as="geometry" />
        </mxCell>
        <mxCell id="ro8EDTR5ztBZMEgjOztu-25" value="Public subnet" style="points=[[0,0],[0.25,0],[0.5,0],[0.75,0],[1,0],[1,0.25],[1,0.5],[1,0.75],[1,1],[0.75,1],[0.5,1],[0.25,1],[0,1],[0,0.75],[0,0.5],[0,0.25]];outlineConnect=0;gradientColor=none;html=1;whiteSpace=wrap;fontSize=12;fontStyle=0;container=1;pointerEvents=0;collapsible=0;recursiveResize=0;shape=mxgraph.aws4.group;grIcon=mxgraph.aws4.group_security_group;grStroke=0;strokeColor=#7AA116;fillColor=#F2F6E8;verticalAlign=top;align=left;spacingLeft=30;fontColor=#248814;dashed=0;" vertex="1" parent="ro8EDTR5ztBZMEgjOztu-16">
          <mxGeometry x="253" y="290" width="160" height="160" as="geometry" />
        </mxCell>
        <mxCell id="ro8EDTR5ztBZMEgjOztu-29" value="" style="sketch=0;outlineConnect=0;fontColor=#232F3E;gradientColor=none;fillColor=#8C4FFF;strokeColor=none;dashed=0;verticalLabelPosition=bottom;verticalAlign=top;align=center;html=1;fontSize=12;fontStyle=0;aspect=fixed;pointerEvents=1;shape=mxgraph.aws4.nat_gateway;" vertex="1" parent="ro8EDTR5ztBZMEgjOztu-25">
          <mxGeometry x="36" y="41" width="78" height="78" as="geometry" />
        </mxCell>
        <mxCell id="ro8EDTR5ztBZMEgjOztu-26" value="EC2" style="sketch=0;points=[[0,0,0],[0.25,0,0],[0.5,0,0],[0.75,0,0],[1,0,0],[0,1,0],[0.25,1,0],[0.5,1,0],[0.75,1,0],[1,1,0],[0,0.25,0],[0,0.5,0],[0,0.75,0],[1,0.25,0],[1,0.5,0],[1,0.75,0]];outlineConnect=0;fontColor=#232F3E;fillColor=#ED7100;strokeColor=#ffffff;dashed=0;verticalLabelPosition=bottom;verticalAlign=top;align=center;html=1;fontSize=12;fontStyle=0;aspect=fixed;shape=mxgraph.aws4.resourceIcon;resIcon=mxgraph.aws4.ec2;" vertex="1" parent="ro8EDTR5ztBZMEgjOztu-16">
          <mxGeometry x="533" y="160" width="78" height="78" as="geometry" />
        </mxCell>
        <mxCell id="ro8EDTR5ztBZMEgjOztu-52" style="edgeStyle=orthogonalEdgeStyle;rounded=0;orthogonalLoop=1;jettySize=auto;html=1;" edge="1" parent="ro8EDTR5ztBZMEgjOztu-16" source="ro8EDTR5ztBZMEgjOztu-43">
          <mxGeometry relative="1" as="geometry">
            <mxPoint x="573" y="450" as="targetPoint" />
            <Array as="points">
              <mxPoint x="213" y="270" />
              <mxPoint x="213" y="490" />
              <mxPoint x="573" y="490" />
            </Array>
          </mxGeometry>
        </mxCell>
        <mxCell id="ro8EDTR5ztBZMEgjOztu-53" style="edgeStyle=orthogonalEdgeStyle;rounded=0;orthogonalLoop=1;jettySize=auto;html=1;entryX=0.5;entryY=0;entryDx=0;entryDy=0;" edge="1" parent="ro8EDTR5ztBZMEgjOztu-16" source="ro8EDTR5ztBZMEgjOztu-43" target="ro8EDTR5ztBZMEgjOztu-21">
          <mxGeometry relative="1" as="geometry">
            <Array as="points">
              <mxPoint x="213" y="270" />
              <mxPoint x="213" y="70" />
              <mxPoint x="573" y="70" />
            </Array>
          </mxGeometry>
        </mxCell>
        <mxCell id="ro8EDTR5ztBZMEgjOztu-43" value="" style="sketch=0;outlineConnect=0;fontColor=#232F3E;gradientColor=none;fillColor=#8C4FFF;strokeColor=none;dashed=0;verticalLabelPosition=bottom;verticalAlign=top;align=center;html=1;fontSize=12;fontStyle=0;aspect=fixed;pointerEvents=1;shape=mxgraph.aws4.route_table;" vertex="1" parent="ro8EDTR5ztBZMEgjOztu-16">
          <mxGeometry x="121" y="230" width="78" height="76" as="geometry" />
        </mxCell>
        <mxCell id="ro8EDTR5ztBZMEgjOztu-44" style="edgeStyle=orthogonalEdgeStyle;rounded=0;orthogonalLoop=1;jettySize=auto;html=1;" edge="1" parent="ro8EDTR5ztBZMEgjOztu-16" source="ro8EDTR5ztBZMEgjOztu-43" target="ro8EDTR5ztBZMEgjOztu-24">
          <mxGeometry relative="1" as="geometry">
            <Array as="points">
              <mxPoint x="213" y="270" />
              <mxPoint x="213" y="180" />
            </Array>
          </mxGeometry>
        </mxCell>
        <mxCell id="ro8EDTR5ztBZMEgjOztu-50" style="edgeStyle=orthogonalEdgeStyle;rounded=0;orthogonalLoop=1;jettySize=auto;html=1;entryX=0.077;entryY=0.556;entryDx=0;entryDy=0;entryPerimeter=0;" edge="1" parent="ro8EDTR5ztBZMEgjOztu-16" source="ro8EDTR5ztBZMEgjOztu-43" target="ro8EDTR5ztBZMEgjOztu-18">
          <mxGeometry relative="1" as="geometry">
            <Array as="points">
              <mxPoint x="213" y="270" />
              <mxPoint x="213" y="380" />
            </Array>
          </mxGeometry>
        </mxCell>
        <mxCell id="ro8EDTR5ztBZMEgjOztu-57" style="edgeStyle=orthogonalEdgeStyle;rounded=0;orthogonalLoop=1;jettySize=auto;html=1;" edge="1" parent="ro8EDTR5ztBZMEgjOztu-16" source="ro8EDTR5ztBZMEgjOztu-55" target="ro8EDTR5ztBZMEgjOztu-43">
          <mxGeometry relative="1" as="geometry" />
        </mxCell>
        <mxCell id="ro8EDTR5ztBZMEgjOztu-55" value="Load Balancer" style="sketch=0;points=[[0,0,0],[0.25,0,0],[0.5,0,0],[0.75,0,0],[1,0,0],[0,1,0],[0.25,1,0],[0.5,1,0],[0.75,1,0],[1,1,0],[0,0.25,0],[0,0.5,0],[0,0.75,0],[1,0.25,0],[1,0.5,0],[1,0.75,0]];outlineConnect=0;fontColor=#232F3E;fillColor=#8C4FFF;strokeColor=#ffffff;dashed=0;verticalLabelPosition=bottom;verticalAlign=top;align=center;html=1;fontSize=12;fontStyle=0;aspect=fixed;shape=mxgraph.aws4.resourceIcon;resIcon=mxgraph.aws4.elastic_load_balancing;" vertex="1" parent="ro8EDTR5ztBZMEgjOztu-16">
          <mxGeometry x="13" y="229" width="78" height="78" as="geometry" />
        </mxCell>
        <mxCell id="ro8EDTR5ztBZMEgjOztu-32" value="" style="sketch=0;outlineConnect=0;fontColor=#232F3E;gradientColor=none;fillColor=#8C4FFF;strokeColor=none;dashed=0;verticalLabelPosition=bottom;verticalAlign=top;align=center;html=1;fontSize=12;fontStyle=0;aspect=fixed;pointerEvents=1;shape=mxgraph.aws4.internet_gateway;" vertex="1" parent="ro8EDTR5ztBZMEgjOztu-15">
          <mxGeometry x="30" y="329" width="78" height="78" as="geometry" />
        </mxCell>
        <mxCell id="ro8EDTR5ztBZMEgjOztu-37" value="S3" style="sketch=0;points=[[0,0,0],[0.25,0,0],[0.5,0,0],[0.75,0,0],[1,0,0],[0,1,0],[0.25,1,0],[0.5,1,0],[0.75,1,0],[1,1,0],[0,0.25,0],[0,0.5,0],[0,0.75,0],[1,0.25,0],[1,0.5,0],[1,0.75,0]];outlineConnect=0;fontColor=#232F3E;fillColor=#7AA116;strokeColor=#ffffff;dashed=0;verticalLabelPosition=middle;verticalAlign=middle;align=right;html=1;fontSize=12;fontStyle=0;aspect=fixed;shape=mxgraph.aws4.resourceIcon;resIcon=mxgraph.aws4.s3;labelPosition=left;" vertex="1" parent="ro8EDTR5ztBZMEgjOztu-15">
          <mxGeometry x="480" y="14" width="70" height="70" as="geometry" />
        </mxCell>
        <mxCell id="ro8EDTR5ztBZMEgjOztu-49" style="edgeStyle=orthogonalEdgeStyle;rounded=0;orthogonalLoop=1;jettySize=auto;html=1;" edge="1" parent="ro8EDTR5ztBZMEgjOztu-15" source="ro8EDTR5ztBZMEgjOztu-47" target="ro8EDTR5ztBZMEgjOztu-37">
          <mxGeometry relative="1" as="geometry" />
        </mxCell>
        <mxCell id="ro8EDTR5ztBZMEgjOztu-47" value="IAM Role" style="sketch=0;outlineConnect=0;fontColor=#232F3E;gradientColor=none;fillColor=#DD344C;strokeColor=none;dashed=0;verticalLabelPosition=top;verticalAlign=bottom;align=center;html=1;fontSize=12;fontStyle=0;aspect=fixed;pointerEvents=1;shape=mxgraph.aws4.role;labelPosition=center;" vertex="1" parent="ro8EDTR5ztBZMEgjOztu-15">
          <mxGeometry x="655" y="27" width="78" height="44" as="geometry" />
        </mxCell>
        <mxCell id="ro8EDTR5ztBZMEgjOztu-48" style="edgeStyle=orthogonalEdgeStyle;rounded=0;orthogonalLoop=1;jettySize=auto;html=1;" edge="1" parent="ro8EDTR5ztBZMEgjOztu-15" source="ro8EDTR5ztBZMEgjOztu-23" target="ro8EDTR5ztBZMEgjOztu-47">
          <mxGeometry relative="1" as="geometry" />
        </mxCell>
        <mxCell id="ro8EDTR5ztBZMEgjOztu-58" style="edgeStyle=orthogonalEdgeStyle;rounded=0;orthogonalLoop=1;jettySize=auto;html=1;entryX=0;entryY=0.5;entryDx=0;entryDy=0;entryPerimeter=0;" edge="1" parent="ro8EDTR5ztBZMEgjOztu-15" source="ro8EDTR5ztBZMEgjOztu-32" target="ro8EDTR5ztBZMEgjOztu-55">
          <mxGeometry relative="1" as="geometry" />
        </mxCell>
        <mxCell id="ro8EDTR5ztBZMEgjOztu-59" style="edgeStyle=orthogonalEdgeStyle;rounded=0;orthogonalLoop=1;jettySize=auto;html=1;" edge="1" parent="1" source="ro8EDTR5ztBZMEgjOztu-33" target="ro8EDTR5ztBZMEgjOztu-32">
          <mxGeometry relative="1" as="geometry" />
        </mxCell>
        <mxCell id="ro8EDTR5ztBZMEgjOztu-33" value="Internet" style="image;aspect=fixed;perimeter=ellipsePerimeter;html=1;align=center;shadow=0;dashed=0;spacingTop=3;image=img/lib/active_directory/internet_cloud.svg;" vertex="1" parent="1">
          <mxGeometry x="-60" y="413" width="80" height="50.4" as="geometry" />
        </mxCell>
      </root>
    </mxGraphModel>
  </diagram>
</mxfile>
